<?xml version="1.0" standalone="no"?>
<!DOCTYPE svg PUBLIC "-//W3C//DTD SVG 20010904//EN"
 "http://www.w3.org/TR/2001/REC-SVG-20010904/DTD/svg10.dtd">
<svg version="1.0" xmlns="http://www.w3.org/2000/svg"
 width="572.000000pt" height="572.000000pt" viewBox="0 0 572.000000 572.000000"
 preserveAspectRatio="xMidYMid meet">
<metadata>
Created by potrace 1.14, written by Peter Selinger 2001-2017
</metadata>
<g transform="translate(0.000000,572.000000) scale(0.100000,-0.100000)"
fill="#000000" stroke="none">
<path d="M2675 4860 c-113 -12 -263 -41 -379 -75 -556 -161 -1041 -585 -1278
-1117 -243 -543 -238 -1144 13 -1668 92 -190 190 -336 318 -473 l64 -68 72 71
71 71 22 -24 22 -23 -70 -69 -70 -69 43 -44 c97 -100 304 -245 462 -325 552
-275 1204 -274 1763 3 161 80 251 137 388 248 365 294 624 725 714 1188 99
514 -8 1044 -299 1475 -75 111 -216 279 -234 279 -6 0 -41 -29 -77 -64 l-65
-65 -24 20 -24 20 66 67 c37 37 67 73 67 79 0 34 -290 253 -450 341 -171 93
-421 176 -625 207 -126 19 -373 27 -490 15z m1684 -755 c218 -259 346 -524
423 -879 20 -90 22 -130 22 -361 0 -290 -8 -354 -80 -585 -212 -680 -785
-1200 -1482 -1346 -584 -121 -1193 32 -1636 411 l-78 68 522 522 522 522 52
-28 c142 -77 317 -78 460 -1 68 36 167 137 199 203 42 86 60 174 54 254 -7 77
-32 160 -66 215 l-21 35 518 518 c284 284 521 517 527 516 5 0 34 -29 64 -64z
m-1344 -893 c121 -57 200 -159 226 -291 33 -171 -75 -367 -239 -432 -45 -19
-77 -23 -152 -24 -88 0 -101 3 -162 33 -86 42 -153 109 -192 192 -28 59 -31
74 -31 165 0 87 4 107 27 157 31 66 104 149 163 183 106 63 248 69 360 17z"/>
<path d="M2753 3162 c-148 -53 -232 -178 -221 -331 9 -119 76 -218 183 -271
70 -35 197 -35 272 -1 62 28 136 103 166 169 33 73 31 189 -6 263 -32 67 -100
133 -165 161 -65 29 -163 33 -229 10z m183 -47 c64 -19 128 -74 161 -139 22
-41 27 -65 27 -121 -1 -289 -380 -378 -517 -121 -31 58 -31 184 0 241 32 61
95 115 155 136 65 22 109 24 174 4z"/>
</g>
</svg>
